<svg width="19" height="20" viewBox="0 0 19 20" fill="none" xmlns="http://www.w3.org/2000/svg">
<path d="M12.7 1V4.6M5.5 1V4.6" stroke="currentColor" stroke-width="2" stroke-linecap="round" stroke-linejoin="round"/>
<path d="M10 2.80005H8.2C4.80588 2.80005 3.10883 2.80005 2.05441 3.85446C1 4.90888 1 6.60593 1 10V11.8C1 15.1941 1 16.8913 2.05441 17.9456C3.10883 19 4.80588 19 8.2 19H10C13.3941 19 15.0912 19 16.1456 17.9456C17.2 16.8913 17.2 15.1941 17.2 11.8V10C17.2 6.60593 17.2 4.90888 16.1456 3.85446C15.0912 2.80005 13.3941 2.80005 10 2.80005Z" stroke="currentColor" stroke-width="2" stroke-linecap="round" stroke-linejoin="round"/>
<path d="M1 8.19995H17.2" stroke="currentColor" stroke-width="2" stroke-linecap="round" stroke-linejoin="round"/>
<path d="M7.29999 15.8502L7.29999 11.6626C7.29999 11.4901 7.17692 11.3502 7.02512 11.3502H6.39999M10.9 15.8484L12.2369 11.703C12.2456 11.6763 12.25 11.6483 12.25 11.6202C12.25 11.4711 12.1291 11.3502 11.98 11.3502L9.99999 11.35" stroke="currentColor" stroke-width="2" stroke-linecap="round" stroke-linejoin="round"/>
</svg>
