<svg width="20" height="20" viewBox="0 0 20 20" fill="none" xmlns="http://www.w3.org/2000/svg">
<path d="M8.5002 6.75024V4.75024C8.5002 3.1065 8.5002 2.28463 8.0462 1.73145C7.96311 1.63019 7.87025 1.53733 7.76899 1.45422C7.21581 1.00024 6.39394 1.00024 4.7502 1.00024C3.10646 1.00024 2.28459 1.00024 1.73141 1.45422C1.63015 1.53733 1.53729 1.63019 1.45418 1.73145C1.0002 2.28463 1.0002 3.1065 1.0002 4.75024V6.75024C1.0002 8.39394 1.0002 9.21584 1.45418 9.76904C1.53729 9.87034 1.63015 9.96314 1.73141 10.0462C2.28459 10.5002 3.10646 10.5002 4.7502 10.5002C6.39394 10.5002 7.21581 10.5002 7.76899 10.0462C7.87025 9.96314 7.96311 9.87034 8.0462 9.76904C8.5002 9.21584 8.5002 8.39394 8.5002 6.75024Z" stroke="currentColor" stroke-width="2" stroke-linejoin="round"/>
<path d="M5.7502 13.5002H3.7502C3.05242 13.5002 2.70353 13.5002 2.41963 13.5863C1.78043 13.7802 1.28022 14.2804 1.08632 14.9196C1.0002 15.2035 1.0002 15.5524 1.0002 16.2502C1.0002 16.948 1.0002 17.2969 1.08632 17.5808C1.28022 18.22 1.78043 18.7202 2.41963 18.9141C2.70353 19.0002 3.05242 19.0002 3.7502 19.0002H5.7502C6.44798 19.0002 6.79687 19.0002 7.08077 18.9141C7.71997 18.7202 8.2202 18.22 8.4141 17.5808C8.5002 17.2969 8.5002 16.948 8.5002 16.2502C8.5002 15.5524 8.5002 15.2035 8.4141 14.9196C8.2202 14.2804 7.71997 13.7802 7.08077 13.5863C6.79687 13.5002 6.44798 13.5002 5.7502 13.5002Z" stroke="currentColor" stroke-width="2" stroke-linejoin="round"/>
<path d="M19.0002 15.2502V13.2502C19.0002 11.6065 19.0002 10.7846 18.5462 10.2314C18.4631 10.1301 18.3703 10.0373 18.269 9.95424C17.7158 9.50024 16.8939 9.50024 15.2502 9.50024C13.6065 9.50024 12.7846 9.50024 12.2314 9.95424C12.1301 10.0373 12.0373 10.1301 11.9542 10.2314C11.5002 10.7846 11.5002 11.6065 11.5002 13.2502V15.2502C11.5002 16.8939 11.5002 17.7158 11.9542 18.269C12.0373 18.3703 12.1301 18.4631 12.2314 18.5462C12.7846 19.0002 13.6065 19.0002 15.2502 19.0002C16.8939 19.0002 17.7158 19.0002 18.269 18.5462C18.3703 18.4631 18.4631 18.3703 18.5462 18.269C19.0002 17.7158 19.0002 16.8939 19.0002 15.2502Z" stroke="currentColor" stroke-width="2" stroke-linejoin="round"/>
<path d="M16.2502 1.00024H14.2502C13.5524 1.00024 13.2035 1.00024 12.9196 1.08636C12.2804 1.28026 11.7802 1.78047 11.5863 2.41967C11.5002 2.70357 11.5002 3.05246 11.5002 3.75024C11.5002 4.44802 11.5002 4.79691 11.5863 5.08081C11.7802 5.72001 12.2804 6.22022 12.9196 6.41412C13.2035 6.50024 13.5524 6.50024 14.2502 6.50024H16.2502C16.948 6.50024 17.2969 6.50024 17.5808 6.41412C18.22 6.22022 18.7202 5.72001 18.9141 5.08081C19.0002 4.79691 19.0002 4.44802 19.0002 3.75024C19.0002 3.05246 19.0002 2.70357 18.9141 2.41967C18.7202 1.78047 18.22 1.28026 17.5808 1.08636C17.2969 1.00024 16.948 1.00024 16.2502 1.00024Z" stroke="currentColor" stroke-width="2" stroke-linejoin="round"/>
</svg>
