<svg width="14" height="20" viewBox="0 0 14 20" fill="none" xmlns="http://www.w3.org/2000/svg">
<path fill-rule="evenodd" clip-rule="evenodd" d="M6.66666 10C6.66666 8.15907 8.15904 6.66669 9.99999 6.66669C11.8409 6.66669 13.3333 8.15907 13.3333 10C13.3333 11.841 11.8409 13.3334 9.99999 13.3334C8.15904 13.3334 6.66666 11.841 6.66666 10Z" fill="#00B6FF"/>
<path fill-rule="evenodd" clip-rule="evenodd" d="M0 16.6666C0 14.8257 1.49238 13.3333 3.33333 13.3333H6.66667V16.6666C6.66667 18.5076 5.17428 20 3.33333 20C1.49238 20 0 18.5076 0 16.6666Z" fill="#24CB71"/>
<path fill-rule="evenodd" clip-rule="evenodd" d="M6.66666 0V6.66667H9.99999C11.8409 6.66667 13.3333 5.17428 13.3333 3.33333C13.3333 1.49238 11.8409 0 9.99999 0H6.66666Z" fill="#FF7237"/>
<path fill-rule="evenodd" clip-rule="evenodd" d="M0 3.33333C0 5.17428 1.49238 6.66667 3.33333 6.66667H6.66667V0H3.33333C1.49238 0 0 1.49238 0 3.33333Z" fill="#FF3737"/>
<path fill-rule="evenodd" clip-rule="evenodd" d="M0 10C0 11.841 1.49238 13.3334 3.33333 13.3334H6.66667V6.66669H3.33333C1.49238 6.66669 0 8.15907 0 10Z" fill="#874FFF"/>
</svg>
