<svg width="23" height="20" viewBox="0 0 23 20" fill="none" xmlns="http://www.w3.org/2000/svg">
<path d="M14.6265 2.06754C15.0131 1.40733 14.782 0.564081 14.1102 0.184092C13.4385 -0.195896 12.5805 0.0312698 12.1939 0.691481L11.5195 1.84302L10.8451 0.691481C10.4585 0.0312698 9.60051 -0.195896 8.92875 0.184092C8.257 0.564081 8.02587 1.40733 8.4125 2.06754L9.90025 4.60803L5.19448 12.6436H1.40339C0.628319 12.6436 0 13.2611 0 14.0229C0 14.7847 0.628319 15.4022 1.40339 15.4022H14.6081C14.7239 15.1032 14.8458 14.5902 14.7161 14.1187C14.5212 13.4099 13.8 12.6436 12.5915 12.6436H8.43295L14.6265 2.06754Z" fill="#227AEE"/>
<path d="M5.9243 16.9274C5.68485 16.666 5.14838 16.2484 4.67797 16.111C3.96069 15.9014 3.41694 16.0329 3.1426 16.1474L2.09724 17.9325C1.71061 18.5927 1.94175 19.4359 2.6135 19.8159C3.28525 20.1959 4.14324 19.9687 4.52987 19.3085L5.9243 16.9274Z" fill="#227AEE"/>
<path d="M19.46 15.4022H21.5966C22.3717 15.4022 23 14.7847 23 14.0229C23 13.2611 22.3717 12.6436 21.5966 12.6436H17.8445L13.6179 5.42635C13.304 5.71959 12.702 6.46872 12.611 7.31807C12.4941 8.41 12.6695 9.32952 13.1958 10.2299C14.9651 13.257 16.7372 16.2828 18.5091 19.3085C18.8957 19.9687 19.7537 20.1959 20.4255 19.8159C21.0972 19.4359 21.3284 18.5927 20.9417 17.9325L19.46 15.4022Z" fill="#227AEE"/>
</svg>
