<svg width="22" height="19" viewBox="0 0 22 19" fill="none" xmlns="http://www.w3.org/2000/svg">
<path d="M11.0002 18C12.8099 18 14.5453 17.8212 16.1536 17.4934C18.1625 17.0839 19.167 16.8791 20.0836 15.7006C21.0002 14.5221 21.0002 13.1693 21.0002 10.4635V8.5365C21.0002 5.83073 21.0002 4.47787 20.0836 3.29937C19.167 2.12088 18.1625 1.91613 16.1536 1.50662C14.5453 1.17877 12.8099 1 11.0002 1C9.19054 1 7.45513 1.17877 5.8468 1.50662C3.8379 1.91613 2.83345 2.12088 1.91684 3.29937C1.00024 4.47787 1.00024 5.83073 1.00024 8.5365V10.4635C1.00024 13.1693 1.00024 14.5221 1.91684 15.7006C2.83345 16.8791 3.8379 17.0839 5.8468 17.4934C7.45513 17.8212 9.19054 18 11.0002 18Z" stroke="#2C3545" stroke-width="2"/>
<path d="M14.9623 9.8129C14.8139 10.4187 14.0243 10.8538 12.4451 11.7241C10.7274 12.6705 9.86864 13.1438 9.17304 12.9615C8.93744 12.8997 8.72044 12.7911 8.53823 12.6438C8.00024 12.2089 8.00024 11.3059 8.00024 9.5C8.00024 7.6941 8.00024 6.79112 8.53823 6.35618C8.72044 6.20886 8.93744 6.10029 9.17304 6.03854C9.86864 5.85621 10.7274 6.32945 12.4451 7.27593C14.0243 8.1462 14.8139 8.5813 14.9623 9.1871C15.0128 9.3933 15.0128 9.6067 14.9623 9.8129Z" stroke="#2C3545" stroke-width="2"/>
</svg>
