<svg width="16" height="20" viewBox="0 0 16 20" fill="none" xmlns="http://www.w3.org/2000/svg">
<path fill-rule="evenodd" clip-rule="evenodd" d="M9.38897 7.89868L14.8653 7.9198C15.1879 7.9213 15.482 8.10348 15.6254 8.3906C15.7688 8.67771 15.7368 9.02062 15.5429 9.27672L7.4599 20.0001C6.23951 19.0945 5.43124 17.7444 5.21297 16.2467C4.9947 14.749 5.38432 13.2265 6.29608 12.0143L9.38897 7.89868Z" fill="url(#paint0_linear_73_2377)"/>
<path fill-rule="evenodd" clip-rule="evenodd" d="M6.29342 12.0143L0.848966 11.9799C0.526375 11.9784 0.232235 11.7963 0.0888667 11.5091C-0.0545016 11.222 -0.0225639 10.8791 0.171398 10.623L8.17467 0C9.39506 0.905511 10.2033 2.25567 10.4216 3.75335C10.6399 5.25103 10.2502 6.77351 9.33849 7.98574L6.29342 12.0143Z" fill="#2684FF"/>
<defs>
<linearGradient id="paint0_linear_73_2377" x1="9.17107" y1="8.70183" x2="12.0802" y2="15.3518" gradientUnits="userSpaceOnUse">
<stop stop-color="#0052CC"/>
<stop offset="1" stop-color="#2684FF"/>
</linearGradient>
</defs>
</svg>
