<svg width="24" height="18" viewBox="0 0 24 18" fill="none" xmlns="http://www.w3.org/2000/svg">
<path d="M15.4401 16.0315C14.2599 17 12.5067 17 9 17C5.49335 17 3.74003 17 2.55993 16.0315C2.34388 15.8542 2.14579 15.6561 1.96849 15.4401C1 14.2599 1 12.5067 1 9C1 5.49335 1 3.74003 1.96849 2.55993C2.14579 2.34388 2.34388 2.14579 2.55993 1.96849C3.74003 1 5.49335 1 9 1C12.5067 1 14.2599 1 15.4401 1.96849C15.6561 2.14579 15.8542 2.34388 16.0315 2.55993C17 3.74003 17 5.49335 17 9C17 12.5067 17 14.2599 16.0315 15.4401C15.8542 15.6561 15.6561 15.8542 15.4401 16.0315Z" stroke="currentColor" stroke-width="2" stroke-linejoin="round"/>
<path d="M17 10.0666V7.93329L19.7733 4.23551C20.0419 3.87739 20.4635 3.66663 20.9111 3.66663C21.6965 3.66663 22.3333 4.30337 22.3333 5.08884V12.9111C22.3333 13.6965 21.6965 14.3333 20.9111 14.3333C20.4635 14.3333 20.0419 14.1225 19.7733 13.7644L17 10.0666Z" stroke="currentColor" stroke-width="2" stroke-linejoin="round"/>
<path d="M8.99999 10.6C9.88362 10.6 10.6 9.88365 10.6 9.00002C10.6 8.1164 9.88362 7.40002 8.99999 7.40002M8.99999 10.6C8.11634 10.6 7.39999 9.88365 7.39999 9.00002C7.39999 8.1164 8.11634 7.40002 8.99999 7.40002M8.99999 10.6V7.40002" stroke="currentColor" stroke-width="2" stroke-linejoin="round"/>
</svg>
