<svg width="21" height="20" viewBox="0 0 21 20" fill="none" xmlns="http://www.w3.org/2000/svg">
<path d="M14 6.04039C13.9588 4.87966 13.8216 4.15445 13.3645 3.58665C12.7114 2.7753 11.5944 2.52058 9.3605 2.01115L8.35915 1.7828C4.9649 1.00876 3.26777 0.621737 2.13388 1.51311C1 2.40448 1 4.12564 1 7.56797V12.4319C1 15.8742 1 17.5954 2.13388 18.4867C3.26777 19.3781 4.9649 18.9911 8.35915 18.217L9.3605 17.9887C11.5944 17.4793 12.7114 17.2245 13.3645 16.4132C13.8216 15.8454 13.9588 15.1202 14 13.9594" stroke="white" stroke-width="2" stroke-linecap="round" stroke-linejoin="round"/>
<path d="M17 7.01166C17 7.01166 20 9.22114 20 10.0116C20 10.8022 17 13.0116 17 13.0116M19.5 10.0116H6.99997" stroke="white" stroke-width="2" stroke-linecap="round" stroke-linejoin="round"/>
</svg>
