<svg width="17" height="20" viewBox="0 0 17 20" fill="none" xmlns="http://www.w3.org/2000/svg">
<path d="M15.4001 15.401L14.3453 8.65M1.00012 15.401L2.486 5.89066C2.92586 3.07541 5.3507 1 8.20012 1" stroke="#AAAAAA" stroke-width="2" stroke-linecap="round" stroke-linejoin="round"/>
<path d="M15.4001 15.4C15.4001 13.9087 12.1766 12.7 8.20012 12.7C4.22367 12.7 1.00012 13.9087 1.00012 15.4C1.00012 16.8912 4.22367 18.1 8.20012 18.1C12.1766 18.1 15.4001 16.8912 15.4001 15.4Z" stroke="#AAAAAA" stroke-width="2" stroke-linecap="round" stroke-linejoin="round"/>
<path d="M9.10017 15.4H7.30017" stroke="#AAAAAA" stroke-width="2" stroke-linecap="round" stroke-linejoin="round"/>
<path d="M11.3501 1.44998L14.9501 5.04998ZM16.3001 3.24998C16.3001 1.51028 14.8898 0.0999756 13.1501 0.0999756C11.4104 0.0999756 10.0001 1.51028 10.0001 3.24998C10.0001 4.98968 11.4104 6.39998 13.1501 6.39998C14.8898 6.39998 16.3001 4.98968 16.3001 3.24998Z" fill="#ED5735"/>
</svg>
