<svg width="22" height="22" viewBox="0 0 22 22" fill="none" xmlns="http://www.w3.org/2000/svg">
<path d="M1.35139 12.2135C0.99837 9.9162 0.82186 8.76763 1.25617 7.74938C1.69047 6.73112 2.65403 6.03443 4.58114 4.64106L6.02099 3.6C8.41829 1.86667 9.6169 1 11 1C12.3831 1 13.5817 1.86667 15.979 3.6L17.4189 4.64106C19.346 6.03443 20.3095 6.73112 20.7438 7.74938C21.1781 8.76763 21.0016 9.9162 20.6486 12.2135L20.3476 14.1724C19.8471 17.4289 19.5969 19.0572 18.429 20.0286C17.2611 21 15.5537 21 12.1388 21H9.8612C6.44633 21 4.73891 21 3.571 20.0286C2.40309 19.0572 2.15287 17.4289 1.65243 14.1724L1.35139 12.2135Z" stroke="#2C3545" stroke-width="2" stroke-linejoin="round"/>
<path d="M10.25 12.25C11.4368 13.4368 13 14.6429 13 14.6429L15.1429 12.5C15.1429 12.5 13.9368 10.9368 12.75 9.75C11.5632 8.56319 10 7.35714 10 7.35714L7.85714 9.5C7.85714 9.5 9.0632 11.0632 10.25 12.25ZM10.25 12.25L6.5 16M15.5 12.1429L12.6429 15M10.3571 7L7.5 9.8571" stroke="#2C3545" stroke-width="2" stroke-linejoin="round"/>
</svg>
