<svg width="20" height="20" viewBox="0 0 20 20" fill="none" xmlns="http://www.w3.org/2000/svg">
<path d="M18.0771 9.23062C19.1391 9.23062 20.0001 8.36971 20.0001 7.30771C20.0001 6.24572 19.1391 5.3848 18.0771 5.3848C17.015 5.3848 16.1539 6.24579 16.1539 7.30788V9.23062H18.0771ZM12.6924 9.23062C13.7545 9.23062 14.6154 8.36963 14.6154 7.30755V1.92326C14.6154 0.861174 13.7545 0.000183105 12.6924 0.000183105C11.6303 0.000183105 10.7693 0.861174 10.7693 1.92326V7.30755C10.7693 8.36963 11.6303 9.23062 12.6924 9.23062Z" fill="#2EB67D"/>
<path d="M1.92285 10.7694C0.86086 10.7694 -5.72205e-05 11.6303 -5.72205e-05 12.6923C-5.72205e-05 13.7543 0.860942 14.6152 1.92294 14.6152C2.98502 14.6152 3.8461 13.7542 3.8461 12.6921V10.7694H1.92285ZM7.30764 10.7694C6.24555 10.7694 5.38456 11.6304 5.38456 12.6925V18.0767C5.38456 19.1388 6.24555 19.9998 7.30764 19.9998C8.36972 19.9998 9.23071 19.1388 9.23071 18.0767V12.6925C9.23071 11.6304 8.36972 10.7694 7.30764 10.7694Z" fill="#E01E5A"/>
<path d="M10.7693 18.0771C10.7693 19.1391 11.6302 20 12.6922 20C13.7542 20 14.6151 19.139 14.6151 18.077C14.6151 17.0149 13.7541 16.1538 12.6921 16.1538L10.7693 16.1538L10.7693 18.0771ZM10.7693 12.6923C10.7693 13.7544 11.6303 14.6154 12.6924 14.6154L18.0767 14.6154C19.1388 14.6154 19.9998 13.7544 19.9998 12.6923C19.9998 11.6302 19.1388 10.7692 18.0767 10.7692L12.6924 10.7692C11.6303 10.7692 10.7693 11.6302 10.7693 12.6923Z" fill="#ECB22E"/>
<path d="M9.23068 1.92292C9.23068 0.860921 8.36977 4.18054e-06 7.30777 4.13412e-06C6.24578 4.0877e-06 5.38486 0.861003 5.38486 1.923C5.38486 2.98508 6.24585 3.84616 7.30794 3.84616L9.23068 3.84616L9.23068 1.92292ZM9.23068 7.3077C9.23068 6.24561 8.36969 5.38462 7.30761 5.38462L1.92332 5.38462C0.861235 5.38462 0.000244271 6.24561 0.000244225 7.3077C0.000244178 8.36978 0.861235 9.23077 1.92332 9.23077L7.30761 9.23077C8.36969 9.23077 9.23068 8.36978 9.23068 7.3077Z" fill="#36C5F0"/>
</svg>
